<svg width="24" height="20" viewBox="0 0 17 14" xmlns="http://www.w3.org/2000/svg"><title>Twitter_active</title><path d="M5.482 13.863c-1.704 0-3.437-.485-5.151-1.43a.34.34 0 0 1-.161-.403c.051-.157.2-.246.371-.233 1.289.143 2.65-.157 3.67-.746-1.18-.274-2.133-1.026-2.635-2.12a.329.329 0 0 1 .056-.363c.089-.103.232-.144.362-.103.149.047.301.075.447.096C1.546 8.034.588 7.028.588 5.523c0-.137.077-.254.198-.308a.342.342 0 0 1 .369.041c.111.089.231.164.354.218a3.544 3.544 0 0 1-.605-1.238c-.232-.883-.098-1.765.387-2.572a.346.346 0 0 1 .275-.165.333.333 0 0 1 .296.124C2.885 2.881 4.705 4.4 7.631 4.681c-.054-.91.224-2.402 1.503-3.141 1.562-.896 3.094-.78 4.386.336.576-.123 1.485-.513 1.674-.643a.354.354 0 0 1 .399 0c.12.081.175.225.137.369-.087.321-.283.677-.528.999a3.34 3.34 0 0 0 .444-.157.354.354 0 0 1 .417.075c.106.11.121.281.038.411-.41.636-1.071 1.231-1.513 1.552.177 2.135-.701 4.482-2.375 6.33-1.786 1.963-4.175 3.051-6.728 3.051h-.001z" fill="#55ACEE"/></svg>
