<svg width="24" height="18" viewBox="0 0 24 18" xmlns="http://www.w3.org/2000/svg"><title>YouTube</title><g fill="none"><path d="M11.722 17.011c-2.186 0-4.413-.091-7.688-.281-1.738-.109-3.356-1.639-3.533-3.339C.13 9.77.13 7.9.503 4.29.678 2.59 2.295 1.061 4.034.96c6.549-.4 8.826-.4 15.375 0 1.737.101 3.355 1.63 3.531 3.33.373 3.62.373 5.491.002 9.101-.174 1.7-1.793 3.23-3.533 3.339-3.274.19-5.502.281-7.687.281z" fill="#CD201F"/><path d="M9.5 11.58a.523.523 0 0 1-.273-.08.51.51 0 0 1-.227-.419V5.71c0-.17.085-.33.227-.419a.498.498 0 0 1 .474-.041l6.113 2.69c.182.081.299.26.299.45a.5.5 0 0 1-.299.46l-6.113 2.69-.201.04z" fill="#fff"/></g></svg>