<svg width="120" height="40" viewBox="0 0 120 40" fill="none" xmlns="http://www.w3.org/2000/svg">
<path d="M110.135 0.00013H9.53468C9.16798 0.00013 8.80568 0.00013 8.43995 0.00213C8.1338 0.00413 7.83009 0.00994 7.521 0.01483C6.84951 0.0227318 6.17961 0.0818063 5.5171 0.19154C4.85552 0.303663 4.21467 0.515046 3.61622 0.81854C3.0185 1.1246 2.47235 1.5223 1.99757 1.9972C1.5203 2.47077 1.12246 3.01815 0.81935 3.61829C0.5154 4.21724 0.304641 4.85907 0.19435 5.52161C0.0830109 6.18332 0.0230984 6.85265 0.01515 7.52361C0.00587 7.83021 0.00489 8.13783 0 8.44447V31.5587C0.00489 31.8692 0.00587 32.17 0.01515 32.4806C0.0231008 33.1516 0.0830134 33.8209 0.19435 34.4825C0.304336 35.1455 0.515108 35.7877 0.81935 36.3868C1.12233 36.985 1.52022 37.5302 1.99757 38.0011C2.47054 38.4781 3.01705 38.8761 3.61622 39.1798C4.21467 39.4841 4.85545 39.6968 5.5171 39.8106C6.17972 39.9195 6.84956 39.9786 7.521 39.9874C7.83009 39.9942 8.1338 39.9981 8.43995 39.9981C8.80567 40.0001 9.168 40.0001 9.53468 40.0001H110.135C110.494 40.0001 110.859 40.0001 111.219 39.9981C111.523 39.9981 111.836 39.9942 112.141 39.9874C112.811 39.9791 113.479 39.92 114.141 39.8106C114.804 39.696 115.448 39.4834 116.049 39.1798C116.647 38.8759 117.193 38.478 117.666 38.0011C118.142 37.5284 118.541 36.9836 118.848 36.3868C119.15 35.7872 119.358 35.1451 119.467 34.4825C119.578 33.8208 119.64 33.1516 119.652 32.4806C119.656 32.17 119.656 31.8692 119.656 31.5587C119.664 31.1954 119.664 30.8341 119.664 30.4649V9.53626C119.664 9.17005 119.664 8.80677 119.656 8.44447C119.656 8.13783 119.656 7.83021 119.652 7.52357C119.64 6.85255 119.578 6.18337 119.467 5.52157C119.358 4.85941 119.149 4.21763 118.848 3.61825C118.23 2.41533 117.252 1.43616 116.049 0.81845C115.448 0.515697 114.804 0.30437 114.141 0.19145C113.48 0.0812328 112.811 0.0221378 112.141 0.01469C111.836 0.00981 111.523 0.00395 111.219 0.002C110.859 0 110.494 0 110.135 0V0.00013Z" fill="black"/>
<path d="M8.44484 39.125C8.14016 39.125 7.84284 39.1211 7.54055 39.1143C6.91433 39.1061 6.28957 39.0516 5.67141 38.9512C5.095 38.8519 4.53661 38.6673 4.01467 38.4033C3.49751 38.1415 3.02582 37.7983 2.61767 37.3867C2.20361 36.98 1.85888 36.5082 1.59716 35.9902C1.33255 35.4688 1.14942 34.9099 1.05416 34.333C0.951281 33.7131 0.895621 33.0863 0.887656 32.458C0.881316 32.2471 0.873016 31.5449 0.873016 31.5449V8.44434C0.873016 8.44434 0.881856 7.75293 0.887706 7.5498C0.895332 6.92248 0.950669 6.29665 1.05324 5.67773C1.14868 5.09925 1.33194 4.53875 1.5967 4.01563C1.85746 3.49794 2.20027 3.02586 2.61184 2.61768C3.02294 2.20562 3.49614 1.8606 4.01418 1.59521C4.53492 1.33209 5.09225 1.14873 5.6675 1.05127C6.28769 0.949836 6.91462 0.894996 7.54301 0.88721L8.44533 0.875H111.214L112.127 0.8877C112.75 0.895099 113.371 0.94945 113.985 1.05029C114.566 1.14898 115.13 1.33362 115.656 1.59814C116.694 2.13299 117.539 2.97916 118.071 4.01807C118.332 4.53758 118.512 5.09351 118.606 5.66699C118.71 6.29099 118.768 6.92174 118.78 7.5542C118.783 7.8374 118.783 8.1416 118.783 8.44434C118.791 8.81934 118.791 9.17627 118.791 9.53613V30.4648C118.791 30.8281 118.791 31.1826 118.783 31.54C118.783 31.8652 118.783 32.1631 118.779 32.4697C118.768 33.0909 118.71 33.7104 118.608 34.3232C118.515 34.9043 118.333 35.4675 118.068 35.9932C117.805 36.5056 117.462 36.9733 117.053 37.3789C116.644 37.7927 116.172 38.1379 115.653 38.4014C115.128 38.6674 114.566 38.8527 113.985 38.9512C113.367 39.0522 112.742 39.1067 112.116 39.1143C111.823 39.1211 111.517 39.125 111.219 39.125L110.135 39.127L8.44484 39.125Z" fill="white"/>
<path d="M41.245 10.9333C41.245 11.6444 41.0672 12.2667 40.6227 12.7111C40.0894 13.2444 39.4672 13.5111 38.6672 13.5111C37.8672 13.5111 37.245 13.2444 36.7116 12.7111C36.1783 12.1778 35.9116 11.5556 35.9116 10.7556C35.9116 9.95556 36.1783 9.33333 36.7116 8.8C37.245 8.26667 37.8672 8 38.6672 8C39.0227 8 39.3783 8.08889 39.7338 8.26667C40.0894 8.44444 40.3561 8.62222 40.5338 8.88889L40.0894 9.33333C39.7338 8.88889 39.2894 8.71111 38.6672 8.71111C38.1338 8.71111 37.6005 8.88889 37.245 9.33333C36.8005 9.68889 36.6227 10.2222 36.6227 10.8444C36.6227 11.4667 36.8005 12 37.245 12.3556C37.6894 12.7111 38.1338 12.9778 38.6672 12.9778C39.2894 12.9778 39.7338 12.8 40.1783 12.3556C40.445 12.0889 40.6227 11.7333 40.6227 11.2889H38.6672V10.5778H41.245V10.9333V10.9333ZM45.3338 8.71111H42.9338V10.4H45.1561V11.0222H42.9338V12.7111H45.3338V13.4222H42.2227V8.08889H45.3338V8.71111ZM48.2672 13.4222H47.5561V8.71111H46.045V8.08889H49.7783V8.71111H48.2672V13.4222ZM52.3561 13.4222V8.08889H53.0672V13.4222H52.3561ZM56.0894 13.4222H55.3783V8.71111H53.8672V8.08889H57.5116V8.71111H56.0005V13.4222H56.0894ZM64.5338 12.7111C64.0005 13.2444 63.3783 13.5111 62.5783 13.5111C61.7783 13.5111 61.1561 13.2444 60.6227 12.7111C60.0894 12.1778 59.8227 11.5556 59.8227 10.7556C59.8227 9.95556 60.0894 9.33333 60.6227 8.8C61.1561 8.26667 61.7783 8 62.5783 8C63.3783 8 64.0005 8.26667 64.5338 8.8C65.0672 9.33333 65.3338 9.95556 65.3338 10.7556C65.3338 11.5556 65.0672 12.1778 64.5338 12.7111ZM61.1561 12.2667C61.5116 12.6222 62.045 12.8889 62.5783 12.8889C63.1116 12.8889 63.645 12.7111 64.0005 12.2667C64.3561 11.9111 64.6227 11.3778 64.6227 10.7556C64.6227 10.1333 64.445 9.6 64.0005 9.24444C63.645 8.88889 63.1116 8.62222 62.5783 8.62222C62.045 8.62222 61.5116 8.8 61.1561 9.24444C60.8005 9.6 60.5338 10.1333 60.5338 10.7556C60.5338 11.3778 60.7116 11.9111 61.1561 12.2667ZM66.3116 13.4222V8.08889H67.1116L69.6894 12.2667V8.08889H70.4005V13.4222H69.6894L66.9338 9.06667V13.4222H66.3116V13.4222Z" fill="black" stroke="white" stroke-width="0.177778" stroke-miterlimit="10"/>
<path d="M59.644 21.2447C57.5107 21.2447 55.8218 22.8447 55.8218 25.0669C55.8218 27.2002 57.5107 28.8891 59.644 28.8891C61.7774 28.8891 63.4663 27.2891 63.4663 25.0669C63.4663 22.7558 61.7774 21.2447 59.644 21.2447ZM59.644 27.2891C58.4885 27.2891 57.5107 26.3113 57.5107 24.978C57.5107 23.6447 58.4885 22.6669 59.644 22.6669C60.7996 22.6669 61.7774 23.5558 61.7774 24.978C61.7774 26.3113 60.7996 27.2891 59.644 27.2891ZM51.3774 21.2447C49.244 21.2447 47.5552 22.8447 47.5552 25.0669C47.5552 27.2002 49.244 28.8891 51.3774 28.8891C53.5107 28.8891 55.1996 27.2891 55.1996 25.0669C55.1996 22.7558 53.5107 21.2447 51.3774 21.2447ZM51.3774 27.2891C50.2218 27.2891 49.244 26.3113 49.244 24.978C49.244 23.6447 50.2218 22.6669 51.3774 22.6669C52.5329 22.6669 53.5107 23.5558 53.5107 24.978C53.5107 26.3113 52.5329 27.2891 51.3774 27.2891ZM41.5107 22.4002V24.0002H45.3329C45.244 24.8891 44.8885 25.6002 44.444 26.0447C43.9107 26.578 43.0218 27.2002 41.5107 27.2002C39.1107 27.2002 37.3329 25.3336 37.3329 22.9336C37.3329 20.5336 39.1996 18.6669 41.5107 18.6669C42.7552 18.6669 43.7329 19.2002 44.444 19.8225L45.5996 18.6669C44.6218 17.778 43.3774 17.0669 41.5996 17.0669C38.3996 17.0669 35.644 19.7336 35.644 22.9336C35.644 26.1336 38.3996 28.8002 41.5996 28.8002C43.3774 28.8002 44.6218 28.2669 45.6885 27.1113C46.7552 26.0447 47.1107 24.5336 47.1107 23.378C47.1107 23.0225 47.1107 22.6669 47.0218 22.4002H41.5107V22.4002ZM81.8663 23.6447C81.5107 22.7558 80.6218 21.2447 78.6663 21.2447C76.7107 21.2447 75.1107 22.7558 75.1107 25.0669C75.1107 27.2002 76.7107 28.8891 78.844 28.8891C80.5329 28.8891 81.5996 27.8224 81.9552 27.2002L80.7107 26.3113C80.2663 26.9336 79.7329 27.378 78.844 27.378C77.9552 27.378 77.4218 27.0224 76.9774 26.2224L82.044 24.0891L81.8663 23.6447V23.6447ZM76.7107 24.8891C76.7107 23.4669 77.8663 22.6669 78.6663 22.6669C79.2885 22.6669 79.9107 23.0224 80.0885 23.4669L76.7107 24.8891ZM72.5329 28.5336H74.2218V17.4224H72.5329V28.5336ZM69.8663 22.0447C69.4218 21.6002 68.7107 21.1558 67.8218 21.1558C65.9552 21.1558 64.1774 22.8447 64.1774 24.978C64.1774 27.1113 65.8663 28.7113 67.8218 28.7113C68.7107 28.7113 69.4218 28.2669 69.7774 27.8225H69.8663V28.3558C69.8663 29.778 69.0663 30.578 67.8218 30.578C66.844 30.578 66.1329 29.8669 65.9552 29.2447L64.5329 29.8669C64.9774 30.8447 66.044 32.0891 67.9107 32.0891C69.8663 32.0891 71.4663 30.9336 71.4663 28.178V21.4224H69.8663V22.0447V22.0447ZM67.9107 27.2891C66.7552 27.2891 65.7774 26.3113 65.7774 24.978C65.7774 23.6447 66.7552 22.6669 67.9107 22.6669C69.0663 22.6669 69.9552 23.6447 69.9552 24.978C69.9552 26.3113 69.0663 27.2891 67.9107 27.2891ZM89.5996 17.4224H85.5996V28.5336H87.2885V24.3558H89.5996C91.4663 24.3558 93.244 23.0224 93.244 20.8891C93.244 18.7558 91.4663 17.4224 89.5996 17.4224V17.4224ZM89.6885 22.7558H87.2885V18.9336H89.6885C90.9329 18.9336 91.644 20.0002 91.644 20.8002C91.5552 21.778 90.844 22.7558 89.6885 22.7558ZM99.9107 21.1558C98.6663 21.1558 97.4218 21.6891 96.9774 22.8447L98.4885 23.4669C98.844 22.8447 99.3774 22.6669 99.9996 22.6669C100.888 22.6669 101.688 23.2002 101.777 24.0891V24.178C101.511 24.0002 100.8 23.7336 100.088 23.7336C98.4885 23.7336 96.8885 24.6224 96.8885 26.2224C96.8885 27.7336 98.2218 28.7113 99.644 28.7113C100.8 28.7113 101.333 28.178 101.777 27.6447H101.866V28.5336H103.466V24.2669C103.288 22.3113 101.777 21.1558 99.9107 21.1558V21.1558ZM99.7329 27.2891C99.1996 27.2891 98.3996 27.0224 98.3996 26.3113C98.3996 25.4224 99.3774 25.1558 100.177 25.1558C100.888 25.1558 101.244 25.3336 101.688 25.5113C101.511 26.578 100.622 27.2891 99.7329 27.2891V27.2891ZM109.066 21.4224L107.2 26.2224H107.111L105.155 21.4224H103.377L106.311 28.178L104.622 31.9113H106.311L110.844 21.4224H109.066V21.4224ZM94.1329 28.5336H95.8218V17.4224H94.1329V28.5336Z" fill="black"/>
<path d="M8.35549 8.53369C8.08883 8.80036 7.99994 9.2448 7.99994 9.77814V29.4226C7.99994 29.9559 8.17772 30.4004 8.44438 30.667L8.53327 30.7559L19.5555 19.7337V19.5559L8.35549 8.53369Z" fill="url(#paint0_linear)"/>
<path d="M23.1111 23.4667L19.4666 19.8222V19.5556L23.1111 15.9111L23.1999 16L27.5555 18.4889C28.7999 19.2 28.7999 20.3556 27.5555 21.0667L23.1111 23.4667V23.4667Z" fill="url(#paint1_linear)"/>
<path d="M23.1999 23.3779L19.4666 19.6445L8.35547 30.7556C8.79991 31.2001 9.42214 31.2001 10.2221 30.8445L23.1999 23.3779" fill="url(#paint2_linear)"/>
<path d="M23.1999 15.9112L10.2221 8.53341C9.42214 8.08897 8.79991 8.17786 8.35547 8.6223L19.4666 19.6445L23.1999 15.9112V15.9112Z" fill="url(#paint3_linear)"/>
<path opacity="0.2" d="M23.111 23.2891L10.2221 30.5779C9.51102 31.0224 8.8888 30.9335 8.44436 30.5779L8.35547 30.6668L8.44436 30.7557C8.8888 31.1113 9.51102 31.2002 10.2221 30.7557L23.111 23.2891Z" fill="black"/>
<path opacity="0.2" d="M8.35549 30.5779C8.08883 30.3112 7.99994 29.8668 7.99994 29.3334V29.4223C7.99994 29.9556 8.17772 30.4001 8.44438 30.6668V30.5779H8.35549ZM27.5555 20.8001L23.1111 23.289L23.1999 23.3779L27.5555 20.889C28.1777 20.5334 28.4444 20.089 28.4444 19.6445C28.4444 20.089 28.0888 20.4445 27.5555 20.8001V20.8001Z" fill="black"/>
<path opacity="0.2" d="M10.2228 8.62222L27.5562 18.4889C28.0895 18.8444 28.4451 19.2 28.4451 19.6444C28.4451 19.2 28.1784 18.7556 27.5562 18.4L10.2228 8.53333C8.97839 7.82222 8.00061 8.35556 8.00061 9.77778V9.86667C8.00061 8.53333 8.97839 7.91111 10.2228 8.62222Z" fill="white"/>
<defs>
<linearGradient id="paint0_linear" x1="18.4888" y1="9.60925" x2="3.5706" y2="24.5266" gradientUnits="userSpaceOnUse">
<stop stop-color="#00A0FF"/>
<stop offset="0.007" stop-color="#00A1FF"/>
<stop offset="0.26" stop-color="#00BEFF"/>
<stop offset="0.512" stop-color="#00D2FF"/>
<stop offset="0.76" stop-color="#00DFFF"/>
<stop offset="1" stop-color="#00E3FF"/>
</linearGradient>
<linearGradient id="paint1_linear" x1="29.1857" y1="19.6454" x2="7.67728" y2="19.6454" gradientUnits="userSpaceOnUse">
<stop stop-color="#FFE000"/>
<stop offset="0.409" stop-color="#FFBD00"/>
<stop offset="0.775" stop-color="#FFA500"/>
<stop offset="1" stop-color="#FF9C00"/>
</linearGradient>
<linearGradient id="paint2_linear" x1="21.1795" y1="21.6854" x2="0.950137" y2="41.9148" gradientUnits="userSpaceOnUse">
<stop stop-color="#FF3A44"/>
<stop offset="1" stop-color="#C31162"/>
</linearGradient>
<linearGradient id="paint3_linear" x1="5.59725" y1="2.02319" x2="14.631" y2="11.057" gradientUnits="userSpaceOnUse">
<stop stop-color="#32A071"/>
<stop offset="0.069" stop-color="#2DA771"/>
<stop offset="0.476" stop-color="#15CF74"/>
<stop offset="0.801" stop-color="#06E775"/>
<stop offset="1" stop-color="#00F076"/>
</linearGradient>
</defs>
</svg>
