<svg width="13" height="25" viewBox="0 0 9 18" xmlns="http://www.w3.org/2000/svg"><title>Facebook_active</title><path d="M5.192 17.242H3.115a.35.35 0 0 1-.346-.355v-6.728H.346A.349.349 0 0 1 0 9.805V6.972c0-.198.155-.354.346-.354h2.423V3.82c0-1.942 1.673-3.577 3.652-3.577h2.233c.191 0 .346.156.346.354v2.125a.348.348 0 0 1-.346.353H7.217c-.702 0-1.678.68-1.678 1.353v2.189h2.87c.109 0 .211.05.277.141a.36.36 0 0 1 .056.312l-.795 2.833a.351.351 0 0 1-.333.256H5.538v6.728a.35.35 0 0 1-.346.355z" fill="#3B5999"/></svg>
