<svg width="24" height="25" viewBox="0 0 24 25" xmlns="http://www.w3.org/2000/svg"><title>Insta</title><defs><linearGradient x1="91.044%" y1="-11.223%" x2="-3.53%" y2="112.487%" id="a"><stop stop-color="#3023AE" offset="0%"/><stop stop-color="#C96DD8" offset="100%"/></linearGradient></defs><g fill="none"><path d="M20.5 24.341h-17c-1.93 0-3.5-1.571-3.5-3.501V3.841c0-1.93 1.57-3.5 3.5-3.5h17c1.93 0 3.5 1.57 3.5 3.5V20.84c0 1.93-1.57 3.501-3.5 3.501z" fill="url(#a)"/><path d="M11.721 7.34c-2.757 0-5 2.24-5 5.001 0 2.759 2.243 5 5 5s5-2.241 5-5a5.004 5.004 0 0 0-5-5.001zm0 11.001c-3.309 0-6-2.691-6-6 0-3.31 2.691-6 6-6 3.308 0 6 2.69 6 6 0 3.309-2.692 6-6 6zm0-8.25a2.252 2.252 0 0 0-2.25 2.25c0 1.24 1.009 2.25 2.25 2.25 1.24 0 2.25-1.01 2.25-2.25 0-1.241-1.01-2.25-2.25-2.25zm0 5.499a3.254 3.254 0 0 1-3.25-3.249c0-1.791 1.458-3.25 3.25-3.25s3.25 1.459 3.25 3.25a3.254 3.254 0 0 1-3.25 3.249zM18 5.341h2v-2h-2v2zm2.5 1h-3a.498.498 0 0 1-.5-.501v-3c0-.28.224-.499.5-.499h3c.276 0 .5.219.5.499v3c0 .28-.224.501-.5.501z" fill="#fff"/></g></svg>