<svg width="25" height="25" viewBox="0 0 18 18" xmlns="http://www.w3.org/2000/svg"><title>Pinterest_active</title><g fill="none"><path d="M9.333.242C4.62.242.803 4.059.803 8.77s3.818 8.528 8.53 8.528a8.528 8.528 0 1 0 0-17.056z" fill="#BD081C"/><path d="M8.185 7.346c-.198.035-.607 1.033-.491 2.408.021.234.064.574.163.922l.398-1.325c.215-.601.407-1.572.177-1.898-.035-.057-.093-.106-.247-.106zm-1.648 9.322l-.101-.022a.35.35 0 0 1-.237-.439l1.339-4.462c-.368-.652-.571-1.524-.571-2.465 0-1.276.381-2.642 1.219-2.642.449 0 .698.219.827.403.52.744.021 2.239-.085 2.529l-.62 2.068c.296.397.732.687 1.373.687 1.794 0 3.887-1.02 3.887-3.896 0-2.294-1.336-4.625-3.889-4.625-1.859 0-4.626 1.042-4.626 3.917 0 1.247.43 2.153 1.181 2.5.178.079.256.29.175.468-.083.177-.295.254-.47.177-1.014-.468-1.594-1.609-1.594-3.146 0-3.393 3.19-4.625 5.334-4.625 3.018 0 4.597 2.684 4.597 5.333 0 3.181-2.308 4.604-4.596 4.604-.63 0-1.174-.205-1.61-.608l-1.194 3.987a.353.353 0 0 1-.339.256z" fill="#fff"/></g></svg>
